<mxfile host="Electron" modified="2023-10-19T16:35:29.210Z" agent="Mozilla/5.0 (Windows NT 10.0; Win64; x64) AppleWebKit/537.36 (KHTML, like Gecko) draw.io/21.6.8 Chrome/114.0.5735.289 Electron/25.5.0 Safari/537.36" etag="NdQSaPqqnCZAIe-6VFpt" version="21.6.8" type="device">
  <diagram name="Page-1" id="1hCz98Fzl_E5wx3YEaef">
    <mxGraphModel dx="5914" dy="2649" grid="1" gridSize="10" guides="1" tooltips="1" connect="1" arrows="1" fold="1" page="1" pageScale="1" pageWidth="850" pageHeight="1100" math="0" shadow="0">
      <root>
        <mxCell id="0" />
        <mxCell id="1" parent="0" />
        <mxCell id="cFEULH1r9qgagwfWncCQ-2" value="Visit&amp;nbsp; Website" style="rounded=1;whiteSpace=wrap;html=1;arcSize=40;labelBackgroundColor=none;" vertex="1" parent="1">
          <mxGeometry x="-2040" y="-585" width="120" height="40" as="geometry" />
        </mxCell>
        <mxCell id="cFEULH1r9qgagwfWncCQ-3" value="" style="edgeStyle=orthogonalEdgeStyle;html=1;verticalAlign=bottom;endArrow=open;endSize=8;rounded=0;exitX=0.5;exitY=1;exitDx=0;exitDy=0;labelBackgroundColor=none;fontColor=default;" edge="1" parent="1" source="cFEULH1r9qgagwfWncCQ-2" target="cFEULH1r9qgagwfWncCQ-4">
          <mxGeometry relative="1" as="geometry">
            <mxPoint x="-2050" y="-565" as="targetPoint" />
            <Array as="points" />
          </mxGeometry>
        </mxCell>
        <mxCell id="cFEULH1r9qgagwfWncCQ-4" value="Enter Username and Password" style="rounded=1;whiteSpace=wrap;html=1;arcSize=40;labelBackgroundColor=none;" vertex="1" parent="1">
          <mxGeometry x="-2040" y="-485" width="120" height="40" as="geometry" />
        </mxCell>
        <mxCell id="cFEULH1r9qgagwfWncCQ-5" value="" style="ellipse;html=1;shape=startState;labelBackgroundColor=none;strokeColor=#000000;fillColor=#000000;" vertex="1" parent="1">
          <mxGeometry x="-1995" y="-685" width="30" height="30" as="geometry" />
        </mxCell>
        <mxCell id="cFEULH1r9qgagwfWncCQ-6" value="" style="edgeStyle=orthogonalEdgeStyle;html=1;verticalAlign=bottom;endArrow=open;endSize=8;rounded=0;entryX=0.5;entryY=0;entryDx=0;entryDy=0;labelBackgroundColor=none;fontColor=default;" edge="1" parent="1" source="cFEULH1r9qgagwfWncCQ-5" target="cFEULH1r9qgagwfWncCQ-2">
          <mxGeometry relative="1" as="geometry">
            <mxPoint x="-1965" y="-475" as="targetPoint" />
          </mxGeometry>
        </mxCell>
        <mxCell id="cFEULH1r9qgagwfWncCQ-7" value="" style="edgeStyle=orthogonalEdgeStyle;html=1;verticalAlign=bottom;endArrow=open;endSize=8;rounded=0;exitX=0.5;exitY=1;exitDx=0;exitDy=0;entryX=0.5;entryY=0;entryDx=0;entryDy=0;labelBackgroundColor=none;fontColor=default;" edge="1" parent="1" source="cFEULH1r9qgagwfWncCQ-8" target="cFEULH1r9qgagwfWncCQ-10">
          <mxGeometry relative="1" as="geometry">
            <mxPoint x="-1770" y="-555" as="targetPoint" />
            <mxPoint x="-1820" y="-315" as="sourcePoint" />
          </mxGeometry>
        </mxCell>
        <mxCell id="cFEULH1r9qgagwfWncCQ-9" value="" style="edgeStyle=orthogonalEdgeStyle;html=1;verticalAlign=bottom;endArrow=open;endSize=8;rounded=0;exitX=0.5;exitY=1;exitDx=0;exitDy=0;labelBackgroundColor=none;fontColor=default;" edge="1" parent="1" source="cFEULH1r9qgagwfWncCQ-4" target="cFEULH1r9qgagwfWncCQ-8">
          <mxGeometry relative="1" as="geometry">
            <mxPoint x="-1710" y="-625" as="targetPoint" />
            <mxPoint x="-1760" y="-245" as="sourcePoint" />
          </mxGeometry>
        </mxCell>
        <mxCell id="cFEULH1r9qgagwfWncCQ-10" value="" style="rhombus;whiteSpace=wrap;html=1;labelBackgroundColor=none;" vertex="1" parent="1">
          <mxGeometry x="-2020" y="-275" width="80" height="40" as="geometry" />
        </mxCell>
        <mxCell id="cFEULH1r9qgagwfWncCQ-11" value="Not Valid" style="edgeStyle=orthogonalEdgeStyle;html=1;align=left;verticalAlign=bottom;endArrow=open;endSize=8;rounded=0;labelBackgroundColor=none;fontColor=default;" edge="1" parent="1" source="cFEULH1r9qgagwfWncCQ-10" target="cFEULH1r9qgagwfWncCQ-2">
          <mxGeometry x="-1" relative="1" as="geometry">
            <mxPoint x="-1830" y="-255" as="targetPoint" />
            <Array as="points">
              <mxPoint x="-1800" y="-255" />
              <mxPoint x="-1800" y="-615" />
              <mxPoint x="-1980" y="-615" />
            </Array>
          </mxGeometry>
        </mxCell>
        <mxCell id="cFEULH1r9qgagwfWncCQ-12" value="" style="edgeStyle=orthogonalEdgeStyle;html=1;verticalAlign=bottom;endArrow=open;endSize=8;rounded=0;exitX=0;exitY=0.5;exitDx=0;exitDy=0;entryX=0.5;entryY=0;entryDx=0;entryDy=0;labelBackgroundColor=none;fontColor=default;" edge="1" parent="1" source="cFEULH1r9qgagwfWncCQ-10" target="cFEULH1r9qgagwfWncCQ-14">
          <mxGeometry relative="1" as="geometry">
            <mxPoint x="-1970" y="-375" as="targetPoint" />
            <mxPoint x="-1970" y="-435" as="sourcePoint" />
            <Array as="points">
              <mxPoint x="-2060" y="-255" />
              <mxPoint x="-2060" y="-185" />
            </Array>
          </mxGeometry>
        </mxCell>
        <mxCell id="cFEULH1r9qgagwfWncCQ-13" value="Valid" style="edgeLabel;html=1;align=center;verticalAlign=middle;resizable=0;points=[];labelBackgroundColor=none;" vertex="1" connectable="0" parent="cFEULH1r9qgagwfWncCQ-12">
          <mxGeometry x="-0.75" relative="1" as="geometry">
            <mxPoint x="5" y="-10" as="offset" />
          </mxGeometry>
        </mxCell>
        <mxCell id="cFEULH1r9qgagwfWncCQ-14" value="Collect Feedback" style="rounded=1;whiteSpace=wrap;html=1;arcSize=40;labelBackgroundColor=none;" vertex="1" parent="1">
          <mxGeometry x="-2120" y="-175" width="120" height="40" as="geometry" />
        </mxCell>
        <mxCell id="cFEULH1r9qgagwfWncCQ-17" value="" style="edgeStyle=orthogonalEdgeStyle;html=1;verticalAlign=bottom;endArrow=open;endSize=8;rounded=0;exitX=0.5;exitY=1;exitDx=0;exitDy=0;entryX=0.5;entryY=0;entryDx=0;entryDy=0;labelBackgroundColor=none;fontColor=default;" edge="1" parent="1" source="cFEULH1r9qgagwfWncCQ-14" target="cFEULH1r9qgagwfWncCQ-16">
          <mxGeometry relative="1" as="geometry">
            <mxPoint x="-2050" y="-165" as="targetPoint" />
            <mxPoint x="-2010" y="-245" as="sourcePoint" />
            <Array as="points">
              <mxPoint x="-2060" y="-90" />
              <mxPoint x="-1550" y="-90" />
            </Array>
          </mxGeometry>
        </mxCell>
        <mxCell id="cFEULH1r9qgagwfWncCQ-25" value="" style="edgeStyle=orthogonalEdgeStyle;html=1;verticalAlign=bottom;endArrow=open;endSize=8;rounded=0;entryX=1;entryY=0.5;entryDx=0;entryDy=0;exitX=0.583;exitY=0.875;exitDx=0;exitDy=0;exitPerimeter=0;" edge="1" parent="1" source="cFEULH1r9qgagwfWncCQ-24">
          <mxGeometry relative="1" as="geometry">
            <mxPoint x="-2210" y="605" as="targetPoint" />
            <Array as="points">
              <mxPoint x="-1350" y="160" />
              <mxPoint x="-1350" y="605" />
            </Array>
            <mxPoint x="-1349.9999999999995" y="280" as="sourcePoint" />
          </mxGeometry>
        </mxCell>
        <mxCell id="cFEULH1r9qgagwfWncCQ-33" value="" style="edgeStyle=orthogonalEdgeStyle;html=1;verticalAlign=bottom;endArrow=open;endSize=8;rounded=0;" edge="1" parent="1" source="cFEULH1r9qgagwfWncCQ-32">
          <mxGeometry relative="1" as="geometry">
            <mxPoint x="-2180" y="585" as="targetPoint" />
            <Array as="points">
              <mxPoint x="-2040" y="525" />
              <mxPoint x="-2180" y="525" />
            </Array>
          </mxGeometry>
        </mxCell>
        <mxCell id="cFEULH1r9qgagwfWncCQ-35" value="" style="rhombus;whiteSpace=wrap;html=1;" vertex="1" parent="1">
          <mxGeometry x="-2220" y="585" width="80" height="40" as="geometry" />
        </mxCell>
        <mxCell id="cFEULH1r9qgagwfWncCQ-36" value="" style="edgeStyle=orthogonalEdgeStyle;html=1;align=left;verticalAlign=top;endArrow=open;endSize=8;rounded=0;entryX=0.5;entryY=0;entryDx=0;entryDy=0;entryPerimeter=0;" edge="1" parent="1" source="cFEULH1r9qgagwfWncCQ-35" target="cFEULH1r9qgagwfWncCQ-37">
          <mxGeometry x="-1" relative="1" as="geometry">
            <mxPoint x="-2180" y="715" as="targetPoint" />
          </mxGeometry>
        </mxCell>
        <mxCell id="cFEULH1r9qgagwfWncCQ-37" value="Analyse Feedback" style="html=1;shape=mxgraph.sysml.callBehAct;whiteSpace=wrap;align=center;" vertex="1" parent="1">
          <mxGeometry x="-2230" y="715" width="100" height="70" as="geometry" />
        </mxCell>
        <mxCell id="cFEULH1r9qgagwfWncCQ-38" value="" style="ellipse;html=1;shape=endState;fillColor=#000000;strokeColor=#000000;" vertex="1" parent="1">
          <mxGeometry x="-2195" y="855" width="30" height="30" as="geometry" />
        </mxCell>
        <mxCell id="cFEULH1r9qgagwfWncCQ-39" value="" style="edgeStyle=orthogonalEdgeStyle;html=1;align=left;verticalAlign=top;endArrow=open;endSize=8;rounded=0;entryX=0.5;entryY=0;entryDx=0;entryDy=0;exitX=0.5;exitY=1;exitDx=0;exitDy=0;exitPerimeter=0;" edge="1" parent="1" source="cFEULH1r9qgagwfWncCQ-37" target="cFEULH1r9qgagwfWncCQ-38">
          <mxGeometry x="-1" relative="1" as="geometry">
            <mxPoint x="-2170" y="885" as="targetPoint" />
            <mxPoint x="-2170" y="795" as="sourcePoint" />
          </mxGeometry>
        </mxCell>
        <mxCell id="cFEULH1r9qgagwfWncCQ-40" value="Marketer" style="swimlane;whiteSpace=wrap;html=1;startSize=30;" vertex="1" parent="1">
          <mxGeometry x="-2320" y="-760" width="540" height="1680" as="geometry" />
        </mxCell>
        <mxCell id="cFEULH1r9qgagwfWncCQ-26" value="" style="shape=line;html=1;strokeWidth=6;strokeColor=#000000;fillColor=#000000;" vertex="1" parent="cFEULH1r9qgagwfWncCQ-40">
          <mxGeometry x="180" y="1040" width="200" height="10" as="geometry" />
        </mxCell>
        <mxCell id="cFEULH1r9qgagwfWncCQ-28" value="" style="edgeStyle=orthogonalEdgeStyle;html=1;verticalAlign=bottom;endArrow=open;endSize=8;rounded=0;entryX=0.5;entryY=0;entryDx=0;entryDy=0;entryPerimeter=0;exitX=0.25;exitY=0.5;exitDx=0;exitDy=0;exitPerimeter=0;" edge="1" parent="cFEULH1r9qgagwfWncCQ-40" source="cFEULH1r9qgagwfWncCQ-26" target="cFEULH1r9qgagwfWncCQ-27">
          <mxGeometry relative="1" as="geometry">
            <mxPoint x="230" y="1103" as="targetPoint" />
            <mxPoint x="230" y="1060" as="sourcePoint" />
          </mxGeometry>
        </mxCell>
        <mxCell id="cFEULH1r9qgagwfWncCQ-31" value="" style="edgeStyle=orthogonalEdgeStyle;html=1;verticalAlign=bottom;endArrow=open;endSize=8;rounded=0;entryX=0.299;entryY=0.023;entryDx=0;entryDy=0;entryPerimeter=0;exitX=0.75;exitY=0.5;exitDx=0;exitDy=0;exitPerimeter=0;" edge="1" parent="cFEULH1r9qgagwfWncCQ-40" source="cFEULH1r9qgagwfWncCQ-26" target="cFEULH1r9qgagwfWncCQ-29">
          <mxGeometry relative="1" as="geometry">
            <mxPoint x="350" y="1125" as="targetPoint" />
            <mxPoint x="350" y="1060" as="sourcePoint" />
          </mxGeometry>
        </mxCell>
        <mxCell id="cFEULH1r9qgagwfWncCQ-27" value="Send Thankyou Email" style="html=1;shape=mxgraph.sysml.callBehAct;whiteSpace=wrap;align=center;" vertex="1" parent="cFEULH1r9qgagwfWncCQ-40">
          <mxGeometry x="180" y="1110" width="100" height="70" as="geometry" />
        </mxCell>
        <mxCell id="cFEULH1r9qgagwfWncCQ-29" value="Enter Ratings to the Report" style="rounded=1;whiteSpace=wrap;html=1;arcSize=40;" vertex="1" parent="cFEULH1r9qgagwfWncCQ-40">
          <mxGeometry x="295" y="1125" width="120" height="40" as="geometry" />
        </mxCell>
        <mxCell id="cFEULH1r9qgagwfWncCQ-34" value="" style="edgeStyle=orthogonalEdgeStyle;html=1;verticalAlign=bottom;endArrow=open;endSize=8;rounded=0;exitX=0.75;exitY=0.5;exitDx=0;exitDy=0;exitPerimeter=0;entryX=0.25;entryY=0.5;entryDx=0;entryDy=0;entryPerimeter=0;" edge="1" parent="cFEULH1r9qgagwfWncCQ-40" target="cFEULH1r9qgagwfWncCQ-32">
          <mxGeometry relative="1" as="geometry">
            <mxPoint x="230" y="1230" as="targetPoint" />
            <mxPoint x="229.23999999999978" y="1180" as="sourcePoint" />
          </mxGeometry>
        </mxCell>
        <mxCell id="cFEULH1r9qgagwfWncCQ-30" value="" style="edgeStyle=orthogonalEdgeStyle;html=1;verticalAlign=bottom;endArrow=open;endSize=8;rounded=0;entryX=0.749;entryY=0.284;entryDx=0;entryDy=0;entryPerimeter=0;" edge="1" parent="cFEULH1r9qgagwfWncCQ-40" target="cFEULH1r9qgagwfWncCQ-32">
          <mxGeometry relative="1" as="geometry">
            <mxPoint x="355" y="1220" as="targetPoint" />
            <mxPoint x="330" y="1170" as="sourcePoint" />
            <Array as="points">
              <mxPoint x="330" y="1165" />
              <mxPoint x="330" y="1198" />
              <mxPoint x="330" y="1198" />
            </Array>
          </mxGeometry>
        </mxCell>
        <mxCell id="cFEULH1r9qgagwfWncCQ-32" value="" style="shape=line;html=1;strokeWidth=6;strokeColor=#000000;" vertex="1" parent="cFEULH1r9qgagwfWncCQ-40">
          <mxGeometry x="180" y="1230" width="200" height="10" as="geometry" />
        </mxCell>
        <mxCell id="cFEULH1r9qgagwfWncCQ-41" value="Customer Managment System" style="swimlane;whiteSpace=wrap;html=1;startSize=30;" vertex="1" parent="1">
          <mxGeometry x="-1780" y="-760" width="480" height="1680" as="geometry" />
        </mxCell>
        <mxCell id="cFEULH1r9qgagwfWncCQ-16" value="Check Feedback Ratings" style="rounded=1;whiteSpace=wrap;html=1;arcSize=40;labelBackgroundColor=none;" vertex="1" parent="cFEULH1r9qgagwfWncCQ-41">
          <mxGeometry x="170" y="700" width="120" height="40" as="geometry" />
        </mxCell>
        <mxCell id="cFEULH1r9qgagwfWncCQ-18" value="" style="rhombus;whiteSpace=wrap;html=1;labelBackgroundColor=none;" vertex="1" parent="cFEULH1r9qgagwfWncCQ-41">
          <mxGeometry x="190" y="790" width="80" height="40" as="geometry" />
        </mxCell>
        <mxCell id="cFEULH1r9qgagwfWncCQ-19" value="" style="edgeStyle=orthogonalEdgeStyle;html=1;align=left;verticalAlign=top;endArrow=open;endSize=8;rounded=0;labelBackgroundColor=none;fontColor=default;entryX=0.5;entryY=0;entryDx=0;entryDy=0;" edge="1" parent="cFEULH1r9qgagwfWncCQ-41" source="cFEULH1r9qgagwfWncCQ-18" target="cFEULH1r9qgagwfWncCQ-22">
          <mxGeometry x="0.4194" y="20" relative="1" as="geometry">
            <mxPoint x="90" y="885" as="targetPoint" />
            <Array as="points">
              <mxPoint x="90" y="810" />
            </Array>
            <mxPoint as="offset" />
          </mxGeometry>
        </mxCell>
        <mxCell id="cFEULH1r9qgagwfWncCQ-20" value="Yes" style="edgeLabel;html=1;align=center;verticalAlign=middle;resizable=0;points=[];labelBackgroundColor=none;" vertex="1" connectable="0" parent="cFEULH1r9qgagwfWncCQ-19">
          <mxGeometry x="-0.8563" y="1" relative="1" as="geometry">
            <mxPoint y="-11" as="offset" />
          </mxGeometry>
        </mxCell>
        <mxCell id="cFEULH1r9qgagwfWncCQ-21" value="no" style="edgeStyle=orthogonalEdgeStyle;html=1;align=left;verticalAlign=bottom;endArrow=open;endSize=8;rounded=0;labelBackgroundColor=none;fontColor=default;" edge="1" parent="cFEULH1r9qgagwfWncCQ-41" source="cFEULH1r9qgagwfWncCQ-18">
          <mxGeometry x="-1" relative="1" as="geometry">
            <mxPoint x="410" y="885" as="targetPoint" />
            <Array as="points">
              <mxPoint x="410" y="810" />
              <mxPoint x="410" y="885" />
            </Array>
          </mxGeometry>
        </mxCell>
        <mxCell id="cFEULH1r9qgagwfWncCQ-22" value="Ratings Provided" style="rounded=1;whiteSpace=wrap;html=1;arcSize=40;" vertex="1" parent="cFEULH1r9qgagwfWncCQ-41">
          <mxGeometry x="30" y="885" width="120" height="40" as="geometry" />
        </mxCell>
        <mxCell id="cFEULH1r9qgagwfWncCQ-24" value="No Ratings" style="rounded=1;whiteSpace=wrap;html=1;arcSize=40;" vertex="1" parent="cFEULH1r9qgagwfWncCQ-41">
          <mxGeometry x="350" y="885" width="120" height="40" as="geometry" />
        </mxCell>
        <mxCell id="cFEULH1r9qgagwfWncCQ-15" value="" style="edgeStyle=orthogonalEdgeStyle;html=1;verticalAlign=bottom;endArrow=open;endSize=8;rounded=0;exitX=0.5;exitY=1;exitDx=0;exitDy=0;entryX=0.5;entryY=0;entryDx=0;entryDy=0;labelBackgroundColor=none;fontColor=default;" edge="1" parent="cFEULH1r9qgagwfWncCQ-41" source="cFEULH1r9qgagwfWncCQ-16" target="cFEULH1r9qgagwfWncCQ-18">
          <mxGeometry relative="1" as="geometry">
            <mxPoint x="-280" y="785" as="targetPoint" />
            <mxPoint x="-115" y="745" as="sourcePoint" />
          </mxGeometry>
        </mxCell>
        <mxCell id="cFEULH1r9qgagwfWncCQ-43" value="Security Management System" style="swimlane;whiteSpace=wrap;html=1;startSize=30;" vertex="1" parent="1">
          <mxGeometry x="-2620" y="-760" width="300" height="1680" as="geometry" />
        </mxCell>
        <mxCell id="cFEULH1r9qgagwfWncCQ-8" value="Validate Username and Password" style="rounded=1;whiteSpace=wrap;html=1;arcSize=40;labelBackgroundColor=none;" vertex="1" parent="cFEULH1r9qgagwfWncCQ-43">
          <mxGeometry x="140" y="370" width="120" height="40" as="geometry" />
        </mxCell>
        <mxCell id="cFEULH1r9qgagwfWncCQ-23" value="" style="edgeStyle=orthogonalEdgeStyle;html=1;verticalAlign=bottom;endArrow=open;endSize=8;rounded=0;entryX=0.396;entryY=0.553;entryDx=0;entryDy=0;entryPerimeter=0;" edge="1" parent="1" source="cFEULH1r9qgagwfWncCQ-22" target="cFEULH1r9qgagwfWncCQ-26">
          <mxGeometry relative="1" as="geometry">
            <mxPoint x="-1690" y="208.06999999999994" as="targetPoint" />
          </mxGeometry>
        </mxCell>
      </root>
    </mxGraphModel>
  </diagram>
</mxfile>
